<svg width="34" height="34" xmlns="http://www.w3.org/2000/svg"><defs><clipPath id="a"><path fill="#fff" d="M0 0h112v34H0z"/></clipPath></defs><g class="layer"><g clip-path="url(#a)" fill="#2D383F"><path d="m12.41 22.06 2.97-3.15 3.38 3.15h5.8l-9.22-9.1-9.14 9.1h6.21z"/><path d="m20.92 7.45-4.39 4.49 2.9 3 1.49-1.5 8.13 8.17a13.05 13.05 0 0 1-12.22 8.53 13.14 13.14 0 0 1 .04-26.28c6.39 0 11.74 4.68 12.81 10.78l3.94 4.19A16.93 16.93 0 0 0 16.87 0C12.33 0 8.14 1.76 4.94 4.98A16.9 16.9 0 0 0 0 17c0 4.57 1.75 8.8 4.94 12.02A16.7 16.7 0 0 0 16.87 34c4.49 0 8.73-1.76 11.92-4.98a16.57 16.57 0 0 0 4.16-6.93c.15-.45.26-.93.37-1.38l-3.41-3.64-8.99-9.62z"/></g></g></svg>