<svg width="20" height="20" viewBox="0 0 20 20" fill="none" xmlns="http://www.w3.org/2000/svg"><path d="M18.8322 12.9486C19.3971 11.0443 18.9322 8.88285 18.4383 7.38514C18.4351 7.3272 18.4185 7.27103 18.3899 7.22182C18.222 6.73532 18.0671 6.3357 17.9347 6.04728C18.1784 5.94285 18.3391 5.69014 18.3415 5.40788V2.51323C18.3415 2.12938 18.0525 1.81824 17.6959 1.81824H9.76444C9.58617 1.81789 9.44139 1.97318 9.44107 2.16513C9.44107 2.17229 9.44127 2.17946 9.44164 2.18658C9.55139 4.27157 9.40935 5.68588 8.99939 6.6832C8.99124 6.6931 8.98369 6.70357 8.97679 6.71447C8.97558 6.7318 8.97558 6.74926 8.97679 6.7666C8.82031 7.12964 8.60867 7.46198 8.35054 7.75001L8.32149 7.77086C8.32149 7.77086 8.32149 7.77086 8.32149 7.79519C7.94303 8.18373 7.50655 8.50091 7.03025 8.73343C6.20039 9.12979 5.34874 9.47099 4.48006 9.75507L4.31542 9.81415C1.29716 10.8914 0.903329 12.8443 0.909785 13.8243C0.908978 13.8382 0.908978 13.8521 0.909785 13.866V16.3471C0.910269 16.4678 0.968899 16.5797 1.06473 16.6425C1.80445 17.127 2.60292 17.4988 3.43738 17.7475C3.609 17.7995 3.78727 17.6918 3.83553 17.507C3.84461 17.4722 3.8486 17.4361 3.84735 17.4V17.3201H4.32188V17.6676C4.31982 17.8397 4.43519 17.9875 4.59304 18.0151C4.87388 18.0637 5.15473 18.1019 5.42912 18.1263C5.51902 18.1344 5.60799 18.1016 5.67445 18.0359C5.74087 17.9696 5.77835 17.8763 5.77775 17.7788V17.3409H6.25228V17.8344C6.25228 18.0263 6.39682 18.1819 6.57509 18.1819C6.84625 18.1819 7.11741 18.1819 7.40794 18.1402C7.57608 18.1257 7.70545 17.9742 7.70492 17.7927V17.3409H8.17945V17.6467C8.17715 17.8386 8.31979 17.9962 8.49806 17.9987C8.51675 17.999 8.53543 17.9975 8.55391 17.9942C9.14647 17.8965 9.73055 17.7466 10.3003 17.546L10.352 17.5216C12.6116 16.1316 14.0449 17.2749 14.103 17.3236C14.1593 17.3706 14.2286 17.3963 14.2999 17.3965H14.7002C14.8785 17.3965 15.023 17.2409 15.023 17.049V16.4618H15.4846V17.0421C15.4846 17.234 15.6292 17.3896 15.8074 17.3896H16.8469C17.0252 17.3896 17.1697 17.234 17.1697 17.0421V16.4618H17.6474V17.0421C17.6474 17.234 17.792 17.3896 17.9703 17.3896H18.7676C18.9459 17.3896 19.0904 17.234 19.0904 17.0421V13.2961C19.0936 13.1283 18.9849 12.9821 18.8322 12.9486ZM11.1719 2.52018H17.6797V5.39746H11.1719V2.52018ZM7.11418 9.44927L7.11741 9.47012C7.38203 9.70138 7.62624 9.95849 7.84696 10.2381C7.78841 10.3429 7.75822 10.4633 7.7598 10.5856C7.75758 10.9522 8.03185 11.2512 8.37233 11.2536C8.71285 11.256 8.99067 10.9608 8.99289 10.5942C8.99499 10.2489 8.75074 9.95957 8.43124 9.92882C8.22706 9.62915 7.99444 9.3531 7.7372 9.10525C8.02567 8.92851 8.29707 8.72131 8.54745 8.48671C8.86054 8.80289 9.15183 9.14317 9.41904 9.50487C9.30674 9.85094 9.4763 10.2294 9.79773 10.3504C10.1192 10.4713 10.4708 10.2887 10.5832 9.94272C10.6955 9.59666 10.5259 9.21814 10.2045 9.09722C10.1378 9.07211 10.0676 9.05956 9.99687 9.06008H9.91939C9.63625 8.67635 9.32772 8.31517 8.99616 7.97936C9.15002 7.77542 9.28616 7.55676 9.4029 7.32607C9.90265 7.6061 10.3857 7.91946 10.8491 8.26431C10.8459 8.6347 11.1223 8.93771 11.4663 8.94115C11.8104 8.94458 12.0919 8.64708 12.0951 8.27669C12.0983 7.9063 11.8219 7.60328 11.4778 7.59985C11.3796 7.59885 11.2825 7.62292 11.1945 7.67009C10.7067 7.3146 10.1989 6.99199 9.67406 6.70405C10.0259 5.6963 10.1776 4.35844 10.1066 2.53408H10.5295V5.41136C10.5295 5.79521 10.8185 6.10635 11.1751 6.10635H17.2246C17.3085 6.29052 17.4505 6.61022 17.6055 7.02722H17.4731C15.5121 7.04246 13.9338 8.76614 13.948 10.8772C13.956 12.0768 14.4867 13.2027 15.3813 13.9181C12.7698 14.6583 8.84121 15.5374 5.53564 15.3081C6.14575 12.6845 5.4162 11.0686 4.94167 10.3597C5.68062 10.0988 6.40586 9.79486 7.11418 9.44927ZM4.29283 10.5578C4.64146 10.9991 5.55178 12.4829 4.88357 15.2108C3.7204 15.1123 2.59069 14.7449 1.57154 14.1335C1.55996 14.0541 1.55242 13.9741 1.54895 13.8938V13.8694C1.52312 13.1293 1.78137 11.5273 4.29283 10.5578ZM18.2931 16.6946V16.1143C18.2931 15.9224 18.1485 15.7668 17.9703 15.7668H16.8501C16.6718 15.7668 16.5273 15.9224 16.5273 16.1143V16.6946H16.1302V16.1143C16.1302 15.9224 15.9857 15.7668 15.8074 15.7668H14.6937C14.5155 15.7668 14.3709 15.9224 14.3709 16.1143V16.6807C13.9319 16.3853 12.3276 15.527 10.0517 16.8961C9.64686 17.04 9.23391 17.1561 8.81539 17.2436V17.0039C8.81539 16.812 8.67085 16.6564 8.49258 16.6564H7.37888C7.20061 16.6564 7.05607 16.812 7.05607 17.0039V17.4799H6.89144V16.9934C6.89144 16.8015 6.7469 16.6459 6.56863 16.6459H5.44848C5.27021 16.6459 5.12567 16.8015 5.12567 16.9934V17.407L4.96104 17.3826V16.9934C4.96104 16.8015 4.8165 16.6459 4.63823 16.6459H3.51808C3.3539 16.6447 3.21497 16.7762 3.19527 16.9517C2.62233 16.7487 2.07061 16.482 1.54895 16.156V14.9119C2.9564 15.7146 4.77704 16.017 6.7139 16.017C11.8595 16.017 17.7475 13.8972 18.4416 13.6436L18.4448 16.6946H18.2931ZM18.1349 13.0285C17.8605 13.1258 17.1858 13.376 16.2529 13.6436C14.8086 12.8911 14.2044 11.0207 14.9034 9.466C15.3816 8.40248 16.3757 7.71982 17.4731 7.70136C17.6004 7.69945 17.7276 7.7064 17.854 7.72221L17.8573 7.73264C18.3318 9.20603 18.7579 11.3084 18.1349 13.0285Z" fill="#0266C1"/><path d="M12.415 2.94068C11.8962 2.94068 11.4756 3.39343 11.4756 3.9519C11.4774 4.50959 11.8969 4.96121 12.415 4.96312C12.9338 4.96312 13.3543 4.51037 13.3543 3.9519C13.3543 3.39343 12.9338 2.94068 12.415 2.94068ZM12.415 4.26812C12.2527 4.26812 12.1212 4.12656 12.1212 3.9519C12.1212 3.77724 12.2527 3.63568 12.415 3.63568C12.5772 3.63568 12.7087 3.77724 12.7087 3.9519C12.7087 4.12656 12.5772 4.26812 12.415 4.26812Z" fill="#0266C1"/></svg>