<svg width="18" height="18" viewBox="0 0 18 18" fill="none" xmlns="http://www.w3.org/2000/svg"><path d="M8.74676 13.2907C8.19225 10.9483 6.56161 8.97692 4.31643 7.93448C3.21071 7.4211 2.01521 7.16055 0.818359 7.15283C0.888357 8.81263 1.50096 10.4283 2.59814 11.7548C4.14047 13.6194 6.47371 14.7112 8.9454 14.7271C8.92519 14.2474 8.85944 13.7666 8.74676 13.2907ZM8.74676 13.2907C8.29155 11.3678 7.11107 9.6949 5.46079 8.5807C5.48865 8.41456 5.52211 8.24875 5.56123 8.08351C6.03039 6.10173 7.26988 4.38546 9.00014 3.27271C10.7304 4.38546 11.9699 6.10173 12.4391 8.08351C12.4782 8.24874 12.5116 8.41454 12.5395 8.58068C10.8892 9.69488 9.70881 11.3678 9.25359 13.2907M8.74676 13.2907C8.8594 13.7665 8.9251 14.2471 8.94533 14.7266C8.97954 14.727 9.01379 14.7273 9.04806 14.7273C9.74094 14.7273 10.4233 14.6427 11.0809 14.4802C11.0846 14.4752 11.0883 14.4703 11.0921 14.4653C10.4336 14.6331 9.74978 14.7226 9.05496 14.7271M9.25359 13.2907C9.8081 10.9483 11.4387 8.97692 13.6839 7.93448C14.7896 7.4211 15.9851 7.16055 17.182 7.15283C17.112 8.81263 16.4994 10.4283 15.4022 11.7548C13.8599 13.6194 11.5266 14.7112 9.05496 14.7271M9.25359 13.2907C9.14092 13.7666 9.07517 14.2474 9.05496 14.7271" stroke="#0266C1" stroke-linecap="round" stroke-linejoin="round"/></svg>