<svg width="20" height="20" viewBox="0 0 20 20" fill="none" xmlns="http://www.w3.org/2000/svg"><g clip-path="url(#clip0_131_2832)"><path d="M16.4936 7.97042H11.6235C10.0993 7.97042 8.86373 9.21513 8.86373 10.7506C8.86373 12.286 10.0993 13.5307 11.6235 13.5307H13.7339C15.258 13.5307 16.4936 14.7754 16.4936 16.3108C16.4936 17.8462 15.258 19.0909 13.7339 19.0909H3.50658M6.10399 14.482C6.10399 13.0369 4.94109 11.8654 3.50658 11.8654C2.07208 11.8654 0.90918 13.0369 0.90918 14.482V14.5804C0.90918 15.1542 1.08964 15.7132 1.42464 16.1772L3.50145 19.0539C3.50398 19.0574 3.50918 19.0574 3.51171 19.0539L5.58852 16.1772C5.92353 15.7132 6.10399 15.1542 6.10399 14.5804V14.482ZM4.0087 13.4049L4.02429 13.4123C4.33866 13.5621 4.56785 13.8484 4.64656 14.1897C4.72616 14.5347 4.64062 14.9004 4.41897 15.1754C4.19976 15.4474 3.86813 15.6083 3.52038 15.6083H3.49279C3.14503 15.6083 2.8134 15.4474 2.5942 15.1754C2.37255 14.9004 2.28701 14.5347 2.3666 14.1897C2.44532 13.8484 2.67451 13.5621 2.98888 13.4123L3.00447 13.4049C3.32233 13.2535 3.69083 13.2535 4.0087 13.4049ZM19.091 3.54411C19.091 2.099 17.9281 0.909119 16.4936 0.909119C15.0591 0.909119 13.8962 2.099 13.8962 3.54411C13.8962 4.1122 14.078 4.6713 14.4147 5.12704L16.4885 7.93426C16.491 7.93773 16.4962 7.93773 16.4987 7.93426L18.5725 5.12704C18.9092 4.6713 19.091 4.1122 19.091 3.54411ZM16.9887 2.41035L17.0239 2.42676C17.3302 2.56937 17.5545 2.84565 17.6326 3.1763C17.7126 3.51543 17.6296 3.87274 17.4085 4.14086L17.3974 4.15431C17.1818 4.41571 16.8619 4.56693 16.5246 4.56693H16.4626C16.1253 4.56693 15.8054 4.41571 15.5898 4.15431L15.5787 4.14086C15.3576 3.87274 15.2746 3.51543 15.3546 3.1763C15.4327 2.84565 15.657 2.56937 15.9633 2.42677L15.9985 2.41035C16.3126 2.2641 16.6746 2.2641 16.9887 2.41035Z" stroke="#0266C1" stroke-linecap="round"/></g><defs><clipPath id="clip0_131_2832"><rect width="20" height="20" fill="white"/></clipPath></defs></svg>